<?xml version="1.0" encoding="utf-8"?>
<!-- Generator: Adobe Illustrator 23.0.3, SVG Export Plug-In . SVG Version: 6.00 Build 0)  -->
<svg version="1.2" baseProfile="tiny" id="Warstwa_1"
	 xmlns="http://www.w3.org/2000/svg" xmlns:xlink="http://www.w3.org/1999/xlink" x="0px" y="0px" viewBox="0 0 157.4 49.1"
	 xml:space="preserve" style="background-color: #111">
<g>
	<g>
		<g>
			<g>
				<path fill="white" d="M31.4,30c0,2.8,0.1,5.1,0.2,7.2h-4.2l-0.3-4.3H27c-1.2,2.1-4,4.9-8.7,4.9c-4.1,0-9-2.3-9-11.5V11H14
					v14.5c0,5,1.6,8.4,5.8,8.4c3.2,0,5.4-2.2,6.3-4.4c0.3-0.7,0.4-1.5,0.4-2.4V11h4.8V30z"/>
			</g>
			<path fill="white" d="M35.8,18.1c0-2.8-0.1-4.9-0.2-7.1h4.2l0.3,4.3h0.1c1.3-2.4,4.3-4.9,8.7-4.9c3.6,0,9.3,2.2,9.3,11.2v15.6
				h-4.8V22.1c0-4.2-1.6-7.7-6.1-7.7c-3.1,0-5.5,2.2-6.4,4.9c-0.2,0.6-0.3,1.4-0.3,2.2v15.8h-4.8V18.1z"/>
			<path fill="white" d="M111.4,11l5.7,15.5c0.6,1.7,1.3,3.8,1.7,5.4h0.1c0.5-1.6,1-3.6,1.7-5.5l5.2-15.4h5l-7.1,18.7
				c-3.4,9-5.7,13.5-9,16.4c-2.4,2-4.7,2.8-5.8,3l-1.2-4c1.2-0.4,2.8-1.1,4.2-2.3c1.3-1,2.9-2.9,4-5.3c0.2-0.5,0.4-0.9,0.4-1.1
				c0-0.3-0.1-0.7-0.4-1.2L106.2,11H111.4z"/>
			<path fill="#84C4F0" d="M83.6,0c-4.7,0-9,1.4-12.7,3.9c-2.3-0.6-7.7-1.3-12.7,2.7c0,0,5.7-1,8.2,1.3c-3.3,3.9-5.4,9-5.4,14.6
				c0,12.4,10.1,22.5,22.5,22.5c12.4,0,22.5-10.1,22.5-22.5C106.2,10.1,96.1,0,83.6,0z M76.5,37.2h-4.8V17h4.8V37.2z M76.6,15.2
				h-4.9l0-4.2h4.9L76.6,15.2z M92.2,33.8c1.3,0,2.1-0.1,2.8-0.3l0.2,3.6c-0.9,0.3-2.4,0.6-4.2,0.6c-2.2,0-4-0.8-5.1-2
				C84.5,34.3,84,32,84,28.9V15.2h-4.1l0-0.6h0V11H80h4V6.1l4.7-1.4V11h6.8H96l-1.8,4.2h-5.5v13.6C88.7,32,89.6,33.8,92.2,33.8z"/>
			<path fill="white" d="M153.3,33.8c-2.7,0-3.6-1.8-3.6-5.1V15.2h6.1l1.6-4.2H157h-7.2V4.7l-4.7,1.4V11H141H141l-1.6,4.2h5.7
				v13.7c0,3.1,0.5,5.4,1.8,6.9c1.1,1.2,2.9,2,5.1,2c1.8,0,3.3-0.3,4.2-0.6l-0.2-3.6C155.4,33.7,154.6,33.8,153.3,33.8z"/>
		</g>
		<polygon fill="#C54127" points="136.9,15.2 131.7,15.2 133.3,11 138.5,11 		"/>
		<polygon fill="#C54127" points="5.3,15.2 0,15.2 1.6,11 6.9,11 		"/>
	</g>
	<g>
		<rect x="71.7" y="17" fill="#FFFFFF" width="4.8" height="20.2"/>
		<polygon fill="#FFFFFF" points="76.6,15.2 71.7,15.2 71.8,11 76.7,11 		"/>
		<path fill="#FFFFFF" d="M92.2,33.8c1.3,0,2.1-0.1,2.8-0.3l0.2,3.6c-0.9,0.3-2.4,0.6-4.2,0.6c-2.2,0-4-0.8-5.1-2
			C84.5,34.3,84,32,84,28.9V15.2h-4.1l0-0.6h0V11H80h4V6.1l4.7-1.4V11h6.8H96l-1.8,4.2h-5.5v13.6C88.7,32,89.6,33.8,92.2,33.8z"/>
	</g>
</g>
</svg>
